<svg xmlns="http://www.w3.org/2000/svg" viewBox="0 0 960 733" font-family="Helvetica, Arial, sans-serif">
<title>Iran: a governor on the effect</title>
<desc>A diagram of effects for Iran's cyber calibration, drawn as one balancing loop with a single branch. Cyber provocation raises the risk of a response Iran cannot absorb; that risk raises restraint and reversibility, by the state's choice; and restraint lowers provocation again. One edge lowers where the others raise, so the loop is balancing, marked B and read clockwise: it is the inferred governor that holds the effect under the level the state cannot afford. Drawn in grey, meaning a sourced effect on a branch with no evidenced return: proxies and hacktivist fronts, which raise provocation outside the state's direct control, complicating the calibration during the 2025 exchanges; Albania, a state-attributed crossing, is the clearest case in the record where the inferred governor appears to have failed. An increase in cyber provocation raises the risk of a response Iran cannot absorb. An increase in the risk of a response Iran cannot absorb raises restraint and reversibility, by human intervention. An increase in restraint and reversibility lowers cyber provocation, by human intervention. An increase in proxies and hacktivist fronts raises cyber provocation, by human intervention.</desc>
<rect id="background" x="0" y="0" width="960" height="733" fill="#ffffff"/>
<text id="title" x="480" y="38" font-size="20" text-anchor="middle" fill="#000000">Iran: a governor on the effect</text>
<text id="subtitle" x="480" y="60" font-size="13" text-anchor="middle" fill="#000000">One balancing loop, marked B, with proxies as the branch that complicates it</text>

<!-- nodes -->
<ellipse id="node-provocation" cx="480" cy="150" rx="65" ry="40" fill="#ffffff" stroke="#000000" stroke-width="1.5"/>
<text x="480" y="146" font-size="13.5" text-anchor="middle" fill="#000000">cyber</text>
<text x="480" y="162" font-size="13.5" text-anchor="middle" fill="#000000">provocation</text>

<ellipse id="node-risk" cx="720" cy="480" rx="91" ry="40" fill="#ffffff" stroke="#000000" stroke-width="1.5"/>
<text x="720" y="476" font-size="13.5" text-anchor="middle" fill="#000000">risk of a response</text>
<text x="720" y="492" font-size="13.5" text-anchor="middle" fill="#000000">Iran cannot absorb</text>

<ellipse id="node-restraint" cx="240" cy="480" rx="71" ry="40" fill="#ffffff" stroke="#000000" stroke-width="1.5"/>
<text x="240" y="476" font-size="13.5" text-anchor="middle" fill="#000000">restraint and</text>
<text x="240" y="492" font-size="13.5" text-anchor="middle" fill="#000000">reversibility</text>

<ellipse id="node-proxies" cx="775" cy="250" rx="85" ry="40" fill="#ffffff" stroke="#8c8c8c" stroke-width="1.5"/>
<text x="775" y="246" font-size="13.5" text-anchor="middle" fill="#8c8c8c">proxies and</text>
<text x="775" y="262" font-size="13.5" text-anchor="middle" fill="#8c8c8c">hacktivist fronts</text>

<!-- loop -->
<path d="M 521.8 180.6 Q 652.8 276.6 706.9 440.4" fill="none" stroke="#000000" stroke-width="1.6"/>
<polygon points="706.9,440.4 698.1,429.6 707.6,426.5" fill="#000000"/>

<path d="M 646.4 503.5 Q 480.0 556.8 301.7 499.8" fill="none" stroke="#000000" stroke-width="1.6"/>
<polygon points="301.7,499.8 315.6,499.0 312.6,508.5" fill="#000000"/>
<g transform="rotate(-179.4 477.0 529.2)"><rect x="470.5" y="522.7" width="13" height="13" fill="#ffffff" stroke="#000000" stroke-width="1.5"/></g>

<path d="M 253.0 440.7 Q 307.2 276.6 438.2 180.6" fill="none" stroke="#000000" stroke-width="1.6"/>
<polygon points="438.2,180.6 430.7,192.3 424.8,184.3" fill="#000000"/>
<g transform="rotate(-54.5 326.4 293.6)"><rect x="319.9" y="287.1" width="13" height="13" fill="#000000" stroke="#000000" stroke-width="1.5"/></g>

<!-- balancing loop badge -->
<path id="loop-B" d="M 505 370 A 25 25 0 1 1 492.5 348.35" fill="none" stroke="#d81e1e" stroke-width="1.6"/>
<polygon points="492.5,348.35 481.7,339.6 490.3,334.6" fill="#d81e1e"/>
<text x="480" y="378" font-size="22" text-anchor="middle" fill="#d81e1e">B</text>

<!-- grey branch -->
<path d="M 729.4 216.3 Q 643.5 152.8 545.0 151.1" fill="none" stroke="#8c8c8c" stroke-width="1.6"/>
<polygon points="545.0,151.1 558.1,146.3 557.9,156.3" fill="#8c8c8c"/>
<g transform="rotate(-160.5 640.3 168.2)"><rect x="633.8" y="161.7" width="13" height="13" fill="#ffffff" stroke="#8c8c8c" stroke-width="1.5"/></g>

<!-- notes -->
<text x="52" y="598" font-size="12.5" fill="#000000">One balancing loop: provocation raises the risk of a response Iran cannot absorb, that risk raises restraint, and restraint lowers the provocation again.</text>
<text x="52" y="615" font-size="12.5" fill="#000000">The single lowering edge makes the loop balancing, marked B: it holds the effect under the level the state cannot afford.</text>
<text x="52" y="632" font-size="12.5" fill="#000000">Proxies and hacktivist fronts hang off in grey, raising provocation outside the state's direct control and complicating the calibration in 2025.</text>
<text x="52" y="649" font-size="12.5" fill="#000000">Albania, state-attributed, is the clearest case in the record where the governor itself appears to have failed.</text>

<!-- legend -->
<path d="M 52 680.0 L 80 680.0" fill="none" stroke="#000000" stroke-width="1.6"/>
<polygon points="80,680.0 70,676.0 70,684.0" fill="#000000"/>
<text x="92" y="684.0" font-size="12.5" fill="#000000">natural effect, same direction as the movement of the cause</text>

<path d="M 52 704.0 L 80 704.0" fill="none" stroke="#000000" stroke-width="1.6"/>
<polygon points="80,704.0 70,700.0 70,708.0" fill="#000000"/>
<rect x="52.5" y="697.5" width="13" height="13" fill="#ffffff" stroke="#000000" stroke-width="1.5"/>
<text x="92" y="708.0" font-size="12.5" fill="#000000">human intervention, same direction as the movement of the cause</text>

<path d="M 500 680.0 L 528 680.0" fill="none" stroke="#000000" stroke-width="1.6"/>
<polygon points="528,680.0 518,676.0 518,684.0" fill="#000000"/>
<rect x="500.5" y="673.5" width="13" height="13" fill="#000000" stroke="#000000" stroke-width="1.5"/>
<text x="540" y="684.0" font-size="12.5" fill="#000000">human intervention, opposite direction to the movement of the cause</text>

<path d="M 500 704.0 L 528 704.0" fill="none" stroke="#8c8c8c" stroke-width="1.6"/>
<polygon points="528,704.0 518,700.0 518,708.0" fill="#8c8c8c"/>
<text x="540" y="708.0" font-size="12.5" fill="#8c8c8c">grey: sourced effect on a branch with no evidenced return</text>
</svg>
