<svg xmlns="http://www.w3.org/2000/svg" viewBox="0 0 960 852" font-family="Helvetica, Arial, sans-serif">
<title>The US: two loops that close, one edge that does not</title>
<desc>A diagram of effects for American cyber power, drawn as two reinforcing loops that close and one edge that does not. The operational loop turns intelligence into access, access into persistent presence, presence into disruption, disruption into the shared take, and the take back into intelligence. A second loop, the information ecosystem, runs off the shared take: the take reaches partners and industry, becomes defensive products across many endpoints, generates new telemetry, and returns to the shared take. Both loops are drawn solid, meaning documented, and both are reinforcing, marked R. A single open edge leaves disruption toward adversary networks degraded and then rises, dashed, to a question mark without closing: whether continuous contact deters, degrades, contains, or merely sustains a contest both sides get better at. The two loops close; the strategic edge does not.</desc>
<rect id="background" x="0" y="0" width="960" height="852" fill="#ffffff"/>
<text id="title" x="480" y="38" font-size="20" text-anchor="middle" fill="#000000">The US: two loops that close, one edge that does not</text>
<text id="subtitle" x="480" y="60" font-size="13" text-anchor="middle" fill="#000000">An operational loop and an information-ecosystem loop, both reinforcing; the strategic edge stays open</text>

<!-- nodes: operational loop -->
<ellipse cx="300" cy="150" rx="66" ry="34" fill="#ffffff" stroke="#000000" stroke-width="1.5"/>
<text x="300" y="154" font-size="13.5" text-anchor="middle" fill="#000000">intelligence</text>
<ellipse cx="140" cy="300" rx="52" ry="34" fill="#ffffff" stroke="#000000" stroke-width="1.5"/>
<text x="140" y="304" font-size="13.5" text-anchor="middle" fill="#000000">access</text>
<ellipse cx="190" cy="480" rx="62" ry="40" fill="#ffffff" stroke="#000000" stroke-width="1.5"/>
<text x="190" y="476" font-size="13.5" text-anchor="middle" fill="#000000">persistent</text>
<text x="190" y="492" font-size="13.5" text-anchor="middle" fill="#000000">presence</text>
<ellipse cx="390" cy="530" rx="66" ry="34" fill="#ffffff" stroke="#000000" stroke-width="1.5"/>
<text x="390" y="534" font-size="13.5" text-anchor="middle" fill="#000000">disruption</text>
<ellipse cx="500" cy="330" rx="70" ry="34" fill="#ffffff" stroke="#000000" stroke-width="1.5"/>
<text x="500" y="334" font-size="13.5" text-anchor="middle" fill="#000000">the shared take</text>

<!-- nodes: information loop -->
<ellipse cx="690" cy="165" rx="76" ry="40" fill="#ffffff" stroke="#000000" stroke-width="1.5"/>
<text x="690" y="161" font-size="13.5" text-anchor="middle" fill="#000000">partners and</text>
<text x="690" y="177" font-size="13.5" text-anchor="middle" fill="#000000">industry</text>
<ellipse cx="835" cy="320" rx="64" ry="40" fill="#ffffff" stroke="#000000" stroke-width="1.5"/>
<text x="835" y="316" font-size="13.5" text-anchor="middle" fill="#000000">defensive</text>
<text x="835" y="332" font-size="13.5" text-anchor="middle" fill="#000000">products</text>
<ellipse cx="705" cy="485" rx="62" ry="40" fill="#ffffff" stroke="#000000" stroke-width="1.5"/>
<text x="705" y="481" font-size="13.5" text-anchor="middle" fill="#000000">new</text>
<text x="705" y="497" font-size="13.5" text-anchor="middle" fill="#000000">telemetry</text>

<!-- node: strategic branch -->
<ellipse cx="360" cy="680" rx="98" ry="40" fill="#ffffff" stroke="#000000" stroke-width="1.5"/>
<text x="360" y="676" font-size="13.5" text-anchor="middle" fill="#000000">adversary networks</text>
<text x="360" y="692" font-size="13.5" text-anchor="middle" fill="#000000">degraded</text>
<text x="590" y="614" font-size="26" text-anchor="middle" fill="#8c8c8c">?</text>

<!-- operational loop edges -->
<path d="M 252.5 173.6 Q 197.5 201.0 158.5 268.2" fill="none" stroke="#000000" stroke-width="1.6"/>
<polygon points="158.5,268.2 160.7,254.5 169.3,259.5" fill="#000000"/>
<path d="M 139.3 334.0 Q 138.0 397.5 166.6 442.9" fill="none" stroke="#000000" stroke-width="1.6"/>
<polygon points="166.6,442.9 155.5,434.6 163.9,429.3" fill="#000000"/>
<path d="M 235.6 507.1 Q 282.5 535.0 324.3 533.1" fill="none" stroke="#000000" stroke-width="1.6"/>
<polygon points="324.3,533.1 311.5,538.7 311.0,528.7" fill="#000000"/>
<path d="M 420.7 499.9 Q 475.0 446.5 492.7 363.8" fill="none" stroke="#000000" stroke-width="1.6"/>
<polygon points="492.7,363.8 494.9,377.6 485.1,375.5" fill="#000000"/>
<path d="M 480.2 297.4 Q 427.0 210.0 348.6 173.0" fill="none" stroke="#000000" stroke-width="1.6"/>
<polygon points="348.6,173.0 362.5,174.0 358.3,183.1" fill="#000000"/>

<!-- information loop edges -->
<path d="M 520.6 297.5 Q 570.2 219.0 632.3 191.0" fill="none" stroke="#000000" stroke-width="1.6"/>
<polygon points="632.3,191.0 622.5,200.9 618.4,191.8" fill="#000000"/>
<path d="M 741.0 194.7 Q 785.8 220.8 816.0 281.8" fill="none" stroke="#000000" stroke-width="1.6"/>
<polygon points="816.0,281.8 805.8,272.4 814.7,267.9" fill="#000000"/>
<path d="M 819.7 358.8 Q 794.8 422.0 747.0 455.5" fill="none" stroke="#000000" stroke-width="1.6"/>
<polygon points="747.0,455.5 754.7,444.0 760.5,452.2" fill="#000000"/>
<path d="M 651.3 465.0 Q 579.2 438.2 523.5 362.0" fill="none" stroke="#000000" stroke-width="1.6"/>
<polygon points="523.5,362.0 535.2,369.6 527.1,375.5" fill="#000000"/>

<!-- operational loop badge R (anticlockwise) -->
<path d="M 279 358 A 25 25 0 1 0 316.5 336.35" fill="none" stroke="#d81e1e" stroke-width="1.6"/>
<polygon points="316.5,336.35 318.7,322.6 327.3,327.6" fill="#d81e1e"/>
<text x="304" y="366" font-size="22" text-anchor="middle" fill="#d81e1e">R</text>

<!-- information loop badge R (clockwise) -->
<path d="M 707 325 A 25 25 0 1 1 694.5 303.35" fill="none" stroke="#d81e1e" stroke-width="1.6"/>
<polygon points="694.5,303.35 683.7,294.6 692.3,289.6" fill="#d81e1e"/>
<text x="682" y="333" font-size="22" text-anchor="middle" fill="#d81e1e">R</text>

<!-- strategic branch -->
<path d="M 393.0 564.0 Q 396.8 607.0 378.1 641.6" fill="none" stroke="#000000" stroke-width="1.6"/>
<polygon points="378.1,641.6 379.8,627.8 388.6,632.5" fill="#000000"/>
<path d="M 403.9 644.6 Q 470.0 620.0 566.0 616.0" fill="none" stroke="#8c8c8c" stroke-width="1.6" stroke-dasharray="6 5"/>

<!-- notes -->
<text x="52" y="748" font-size="12.5" fill="#000000">Two reinforcing loops that close: the operational loop turns adversary activity into intelligence, access, presence, disruption and the shared take; the</text>
<text x="52" y="765" font-size="12.5" fill="#000000">information loop turns the take into defensive products, new telemetry and back to intelligence. The take feeds the system that produced it.</text>

<!-- legend -->
<path d="M 52 810.0 L 80 810.0" fill="none" stroke="#000000" stroke-width="1.6"/>
<polygon points="80,810.0 70,806.0 70,814.0" fill="#000000"/>
<text x="92" y="814.0" font-size="12.5" fill="#000000">documented effect that closes a loop</text>

<path d="M 52 834.0 L 80 834.0" fill="none" stroke="#8c8c8c" stroke-width="1.6" stroke-dasharray="6 5"/>
<text x="92" y="838.0" font-size="12.5" fill="#8c8c8c">the strategic edge, which does not close: deter, degrade, contain, or sustain?</text>
</svg>
