<svg xmlns="http://www.w3.org/2000/svg" viewBox="0 0 960 662" font-family="Helvetica, Arial, sans-serif">
<title>Ukraine: cyber threaded through the war, not beside it</title>
<desc>A diagram of effects for Ukraine's cyber posture in war, drawn as one reinforcing loop with cyber threaded through it and an open strategic edge. All-source sensing raises the targeting and decision picture; the picture raises effect, kinetic and cyber; and effect yields new sensing. The three loop edges run in the same direction, so the loop is reinforcing, marked R and read clockwise. Cyber operations is drawn not as a stage in the loop but as a thread through it, feeding both sensing and effect, by human intervention. A dashed open edge leaves effect toward a decisive strategic outcome and does not close: whether this fusion decides the war is unresolved. And there is no node or edge for a separable cyber war, an absence the loop leaves open, because cyber's contribution runs through the other domains and cannot be isolated. An increase in all-source sensing raises the targeting and decision picture. An increase in the targeting and decision picture raises effect, by human intervention. An increase in effect raises all-source sensing. An increase in cyber operations raises all-source sensing, by human intervention. An increase in cyber operations raises effect, by human intervention.</desc>
<rect id="background" x="0" y="0" width="960" height="662" fill="#ffffff"/>
<text id="title" x="480" y="38" font-size="20" text-anchor="middle" fill="#000000">Ukraine: cyber threaded through the war, not beside it</text>
<text id="subtitle" x="480" y="60" font-size="13" text-anchor="middle" fill="#000000">One reinforcing war-cycle, cyber a thread through it rather than a domain beside it, the strategic edge open</text>

<!-- nodes -->
<ellipse cx="210" cy="300" rx="70" ry="40" fill="#ffffff" stroke="#000000" stroke-width="1.5"/>
<text x="210" y="296" font-size="13.5" text-anchor="middle" fill="#000000">all-source</text>
<text x="210" y="312" font-size="13.5" text-anchor="middle" fill="#000000">sensing</text>

<ellipse cx="660" cy="175" rx="82" ry="40" fill="#ffffff" stroke="#000000" stroke-width="1.5"/>
<text x="660" y="171" font-size="13.5" text-anchor="middle" fill="#000000">targeting and</text>
<text x="660" y="187" font-size="13.5" text-anchor="middle" fill="#000000">decision</text>

<ellipse cx="660" cy="460" rx="92" ry="40" fill="#ffffff" stroke="#000000" stroke-width="1.5"/>
<text x="660" y="456" font-size="13.5" text-anchor="middle" fill="#000000">effect</text>
<text x="660" y="472" font-size="13.5" text-anchor="middle" fill="#000000">(kinetic and cyber)</text>

<ellipse cx="210" cy="485" rx="68" ry="40" fill="#ffffff" stroke="#000000" stroke-width="1.5"/>
<text x="210" y="481" font-size="13.5" text-anchor="middle" fill="#000000">cyber</text>
<text x="210" y="497" font-size="13.5" text-anchor="middle" fill="#000000">operations</text>

<!-- loop -->
<path d="M 256.0 269.8 Q 415.0 165.5 578.3 171.8" fill="none" stroke="#000000" stroke-width="1.6"/>
<polygon points="578.3,171.8 565.1,176.3 565.5,166.3" fill="#000000"/>

<path d="M 672.6 214.5 Q 705.6 317.5 672.7 420.4" fill="none" stroke="#000000" stroke-width="1.6"/>
<polygon points="672.7,420.4 671.9,406.5 681.4,409.5" fill="#000000"/>
<g transform="rotate(90.0 689.1 317.5)"><rect x="682.6" y="311.0" width="13" height="13" fill="#ffffff" stroke="#000000" stroke-width="1.5"/></g>

<path d="M 568.2 457.1 Q 409.4 452.0 252.0 332.0" fill="none" stroke="#000000" stroke-width="1.6"/>
<polygon points="252.0,332.0 265.4,335.9 259.3,343.9" fill="#000000"/>

<!-- cyber thread -->
<path d="M 197.4 445.7 Q 180.4 392.5 197.4 339.3" fill="none" stroke="#000000" stroke-width="1.6"/>
<polygon points="197.4,339.3 198.2,353.3 188.7,350.2" fill="#000000"/>
<g transform="rotate(-90.0 188.9 392.5)"><rect x="182.4" y="386.0" width="13" height="13" fill="#ffffff" stroke="#000000" stroke-width="1.5"/></g>

<path d="M 272.2 501.2 Q 439.0 544.5 590.9 486.4" fill="none" stroke="#000000" stroke-width="1.6"/>
<polygon points="590.9,486.4 580.6,495.7 577.0,486.4" fill="#000000"/>
<g transform="rotate(-2.6 435.3 519.1)"><rect x="428.8" y="512.6" width="13" height="13" fill="#ffffff" stroke="#000000" stroke-width="1.5"/></g>

<!-- reinforcing loop badge, clockwise -->
<path id="loop-R" d="M 535 312 A 25 25 0 1 1 522.5 290.35" fill="none" stroke="#d81e1e" stroke-width="1.6"/>
<polygon points="522.5,290.35 511.7,281.6 520.3,276.6" fill="#d81e1e"/>
<text x="510" y="320" font-size="22" text-anchor="middle" fill="#d81e1e">R</text>

<!-- open strategic edge -->
<path d="M 752 460 Q 788 452 820 460" fill="none" stroke="#8c8c8c" stroke-width="1.6" stroke-dasharray="6 5"/>
<text x="845" y="469" font-size="26" text-anchor="middle" fill="#8c8c8c">?</text>

<!-- notes -->
<text x="52" y="562" font-size="12.5" fill="#000000">One reinforcing loop: all-source sensing feeds the targeting picture, the picture drives effect, kinetic and cyber, and</text>
<text x="52" y="579" font-size="12.5" fill="#000000">effect yields new sensing. Cyber is not a stage in the loop but a thread through it, feeding sensing and effect alike.</text>
<text x="52" y="596" font-size="12.5" fill="#000000">There is no separable "cyber war" to draw: its contribution runs through the other domains and cannot be isolated.</text>

<!-- legend -->
<path d="M 52 624 L 80 624" fill="none" stroke="#000000" stroke-width="1.6"/>
<polygon points="80,624 70,620 70,628" fill="#000000"/>
<text x="92" y="628" font-size="12.5" fill="#000000">natural effect, same direction as the movement of the cause</text>

<path d="M 500 624 L 528 624" fill="none" stroke="#000000" stroke-width="1.6"/>
<polygon points="528,624 518,620 518,628" fill="#000000"/>
<rect x="500.5" y="617.5" width="13" height="13" fill="#ffffff" stroke="#000000" stroke-width="1.5"/>
<text x="540" y="628" font-size="12.5" fill="#000000">human intervention, same direction as the movement of the cause</text>

<path d="M 52 646 L 80 646" fill="none" stroke="#8c8c8c" stroke-width="1.6" stroke-dasharray="6 5"/>
<text x="92" y="650" font-size="12.5" fill="#8c8c8c">the open strategic edge, which does not close: does the fusion decide the war?</text>
</svg>
